<?xml version="1.0" encoding="UTF-8"?>
<svg xmlns="http://www.w3.org/2000/svg" xmlns:xlink="http://www.w3.org/1999/xlink" width="3750" height="3750" viewBox="0 0 3750 3750">
<path fill-rule="nonzero" fill="rgb(34.521484%, 65.818787%, 34.521484%)" fill-opacity="1" d="M 3750 0 L 0 0 L 0 3749.992188 L 3750 3749.992188 L 3750 0 "/>
<path fill-rule="nonzero" fill="rgb(95.701599%, 0%, 46.263123%)" fill-opacity="1" d="M 1517.171875 2312.371094 L 1804.289062 2682.839844 L 2355.660156 3750 L 432.683594 3750 C 271.816406 2992.1875 892.007812 2604.121094 892.007812 2604.121094 L 1517.171875 2312.371094 "/>
<path fill-rule="nonzero" fill="rgb(80.46875%, 0%, 38.818359%)" fill-opacity="1" d="M 1534.46875 2334.699219 L 1804.28125 2682.851562 L 2355.660156 3750 L 1563.171875 3750 C 1578.070312 3459.101562 1493.320312 2962.277344 722.929688 2747.371094 C 815.324219 2652.28125 892.015625 2604.121094 892.015625 2604.121094 L 1463.390625 2337.46875 C 1487.179688 2336.519531 1510.988281 2335.53125 1534.46875 2334.699219 "/>
<path fill-rule="nonzero" fill="rgb(50.193787%, 21.166992%, 11.767578%)" fill-opacity="1" d="M 984.625 1863.179688 C 984.625 1863.179688 966.101562 2289.21875 706.773438 2525.398438 C 706.773438 2525.398438 776.238281 2678.21875 892.007812 2604.121094 C 892.007812 2604.121094 804.023438 2668.960938 729.925781 2668.960938 C 729.925781 2668.960938 979.992188 2784.726562 1114.289062 2594.859375 C 1248.589844 2405 1067.980469 1872.449219 1067.980469 1872.449219 L 984.625 1863.179688 "/>
<path fill-rule="nonzero" fill="rgb(50.193787%, 21.166992%, 11.767578%)" fill-opacity="1" d="M 2718.269531 2368.148438 C 2718.269531 2368.148438 3040.738281 2969.964844 2809.199219 3345.0625 C 2809.199219 3345.0625 2915.699219 3048.6875 2781.410156 2826.40625 C 2781.410156 2826.40625 2855.5 3423.789062 2526.710938 3558.085938 C 2197.921875 3692.378906 2211.808594 2682.851562 2211.808594 2682.851562 L 2452.621094 2159.558594 L 2718.269531 2368.148438 "/>
<path fill-rule="nonzero" fill="rgb(100%, 85.9375%, 75.78125%)" fill-opacity="1" d="M 2929.601562 1627.011719 C 2995 1714.410156 3020.550781 1783.601562 2924.558594 1818.03125 C 2873.808594 1836.039062 2834.511719 1885.148438 2863.980469 1912.988281 C 2893.449219 1940.820312 2922.921875 1945.730469 2924.558594 1971.929688 C 2926.191406 1998.128906 2906.550781 2043.96875 2895.089844 2055.429688 C 2883.628906 2066.890625 2872.171875 2068.53125 2872.171875 2068.53125 C 2872.171875 2068.53125 2936.019531 2109.460938 2932.75 2147.121094 C 2929.46875 2184.769531 2875.449219 2194.601562 2868.898438 2209.328125 C 2862.351562 2224.070312 2891.820312 2371.421875 2826.328125 2436.910156 C 2760.839844 2502.398438 2719.898438 2513.859375 2538.171875 2476.210938 C 2356.429688 2438.550781 1901.539062 2187.351562 1859.859375 2108.621094 C 1818.179688 2029.898438 1739.460938 1585.328125 1739.460938 1585.328125 C 1739.460938 1585.328125 2730.46875 1543.648438 2929.601562 1627.011719 "/>
<path fill-rule="nonzero" fill="rgb(100%, 65.039062%, 51.756287%)" fill-opacity="1" d="M 2259.851562 1574.910156 C 2470.589844 1574.910156 2696.109375 1581.160156 2833.679688 1603.230469 C 2784.238281 1647.539062 2647.800781 1756.109375 2391.980469 1770.640625 C 2092.179688 1787.679688 2419.230469 2336.171875 2419.230469 2336.171875 C 2419.230469 2336.171875 2634.769531 2454.328125 2754.238281 2488.070312 C 2710.300781 2504.089844 2651.710938 2499.738281 2538.171875 2476.210938 C 2409.808594 2449.609375 2145.328125 2316.519531 1986.269531 2212.878906 C 1961.238281 1968.421875 1939.519531 1718.550781 1927.789062 1579.390625 C 2020.210938 1577.050781 2136.808594 1574.910156 2259.851562 1574.910156 "/>
<path fill-rule="nonzero" fill="rgb(75.389099%, 31.762695%, 17.651367%)" fill-opacity="1" d="M 2541.441406 1615.011719 C 2541.441406 1615.011719 2417.011719 2119.28125 2482.5 2368.148438 C 2547.988281 2617.011719 2744.460938 2977.207031 2646.230469 3206.421875 C 2547.988281 3435.640625 2809.949219 3605.914062 2809.949219 3605.914062 C 2809.949219 3605.914062 2580.730469 3553.523438 2528.339844 3311.207031 C 2528.339844 3311.207031 2482.5 3560.070312 2646.230469 3749.992188 L 1650.769531 3749.992188 C 1650.769531 3749.992188 1696.609375 3481.484375 1545.988281 3285.011719 C 1395.359375 3088.539062 1277.46875 2826.578125 1316.769531 2662.851562 C 1316.769531 2662.851562 1008.960938 3029.601562 1493.589844 3402.894531 C 1493.589844 3402.894531 1133.390625 3206.421875 1067.898438 2937.910156 C 1002.410156 2669.398438 1126.839844 2047.238281 963.121094 1745.988281 C 799.390625 1444.730469 1886.53125 1372.691406 1886.53125 1372.691406 L 2541.441406 1615.011719 "/>
<path fill-rule="nonzero" fill="rgb(95.701599%, 76.171875%, 0%)" fill-opacity="1" d="M 2777.210938 1254.808594 C 2777.210938 1254.808594 3425.558594 1192.589844 3445.210938 1205.691406 C 3464.859375 1218.789062 3461.578125 1287.550781 3438.660156 1349.769531 C 3415.738281 1411.988281 3317.511719 1818.03125 1929.109375 1673.949219 C 1929.109375 1673.949219 1067.898438 1876.96875 982.765625 1971.929688 C 982.765625 1971.929688 478.488281 1005.941406 1428.101562 652.300781 C 2377.71875 298.648438 2777.210938 1254.808594 2777.210938 1254.808594 "/>
<path fill-rule="nonzero" fill="rgb(10.205078%, 10.205078%, 10.205078%)" fill-opacity="1" d="M 2840.449219 1824.980469 C 2840.449219 1824.980469 2879.808594 1792.558594 2903.550781 1796.609375 C 2927.28125 1800.671875 2904.121094 1808.769531 2882.710938 1813.980469 C 2861.289062 1819.191406 2840.449219 1824.980469 2840.449219 1824.980469 "/>
<path fill-rule="nonzero" fill="rgb(100%, 65.039062%, 51.756287%)" fill-opacity="1" d="M 2779.671875 1859.710938 C 2779.671875 1859.710938 2733.941406 1815.140625 2752.46875 1778.089844 C 2752.46875 1778.089844 2675.480469 1870.710938 2779.671875 1859.710938 "/>
<path fill-rule="nonzero" fill="rgb(100%, 33.325195%, 33.325195%)" fill-opacity="1" d="M 2912.78125 1951.601562 C 2913.578125 1951.601562 2914.378906 1951.601562 2915.140625 1951.601562 C 2920.550781 1957.109375 2924.011719 1963.339844 2924.539062 1971.808594 C 2926.171875 1998.011719 2906.539062 2043.839844 2895.078125 2055.300781 C 2883.621094 2066.761719 2872.160156 2068.410156 2872.160156 2068.410156 C 2872.160156 2068.410156 2936.011719 2109.339844 2932.730469 2146.988281 C 2930.210938 2176.171875 2897.289062 2188.628906 2879.5 2199.609375 C 2830.261719 2176.351562 2775.800781 2105.769531 2783.710938 2089.96875 C 2792.96875 2071.449219 2863.589844 1967.261719 2897.171875 1954.519531 C 2902.941406 1952.320312 2908.128906 1951.460938 2912.769531 1951.488281 "/>
<path fill-rule="nonzero" fill="rgb(10.205078%, 10.205078%, 10.205078%)" fill-opacity="1" d="M 2854.921875 2069.261719 C 2854.921875 2069.261719 2818.460938 2076.78125 2809.199219 2081.421875 C 2799.929688 2086.050781 2769.828125 2087.199219 2767.519531 2094.148438 C 2765.21875 2101.101562 2779.089844 2110.359375 2794.71875 2100.519531 C 2810.351562 2090.679688 2854.921875 2069.261719 2854.921875 2069.261719 "/>
<path fill-rule="nonzero" fill="rgb(89.84375%, 60.742188%, 0%)" fill-opacity="1" d="M 2718.890625 1286.640625 C 2718.890625 1286.640625 2587.28125 1343.21875 2492.320312 1415.261719 C 2397.359375 1487.300781 2030.621094 1634.648438 2030.621094 1634.648438 C 2030.621094 1634.648438 2367.890625 1461.101562 2439.929688 1389.058594 C 2511.96875 1317.019531 2718.890625 1286.640625 2718.890625 1286.640625 "/>
<path fill-rule="nonzero" fill="rgb(89.84375%, 60.742188%, 0%)" fill-opacity="1" d="M 1886.53125 1431.628906 C 1886.53125 1431.628906 1719.53125 901.160156 1680.238281 842.21875 C 1640.949219 783.28125 1490.320312 698.140625 1490.320312 698.140625 C 1490.320312 698.140625 1618.03125 874.960938 1647.488281 956.828125 C 1676.96875 1038.691406 1886.53125 1431.628906 1886.53125 1431.628906 "/>
<path fill-rule="nonzero" fill="rgb(89.84375%, 60.742188%, 0%)" fill-opacity="1" d="M 1058.078125 992.839844 C 1058.078125 992.839844 989.316406 1195.871094 989.316406 1290.828125 C 989.316406 1385.789062 1051.53125 1654.300781 1051.53125 1654.300781 C 1051.53125 1654.300781 832.136719 1271.179688 1058.078125 992.839844 "/>
<path fill-rule="nonzero" fill="rgb(87.889099%, 43.530273%, 29.417419%)" fill-opacity="1" d="M 2155.050781 1785.28125 C 2155.050781 1785.28125 2063.359375 2283.011719 2096.109375 2400.890625 C 2128.851562 2518.769531 2194.339844 2387.789062 2194.339844 2387.789062 C 2194.339844 2387.789062 2187.789062 2918.265625 2371.171875 3114.738281 C 2371.171875 3114.738281 2135.398438 2977.207031 2141.949219 2525.320312 C 2141.949219 2525.320312 2030.609375 2617.011719 2024.070312 2433.640625 C 2017.519531 2250.261719 2155.050781 1785.28125 2155.050781 1785.28125 "/>
<path fill-rule="nonzero" fill="rgb(87.889099%, 43.530273%, 29.417419%)" fill-opacity="1" d="M 1716.261719 2296.109375 C 1716.261719 2296.109375 1683.519531 2878.972656 1794.851562 3049.246094 C 1906.179688 3219.523438 1945.480469 3317.757812 1919.28125 3664.859375 C 1919.28125 3664.859375 1893.078125 3206.421875 1650.769531 3075.445312 C 1408.449219 2944.460938 1716.261719 2296.109375 1716.261719 2296.109375 "/>
<path fill-rule="nonzero" fill="rgb(87.889099%, 43.530273%, 29.417419%)" fill-opacity="1" d="M 1395.359375 1968.648438 C 1395.359375 1968.648438 1336.410156 2250.261719 1382.261719 2446.738281 C 1382.261719 2446.738281 1218.53125 2269.910156 1395.359375 1968.648438 "/>
</svg>
