<?xml version="1.0" encoding="UTF-8"?>
<svg xmlns="http://www.w3.org/2000/svg" xmlns:xlink="http://www.w3.org/1999/xlink" width="3750" height="3750" viewBox="0 0 3750 3750">
<rect x="-375" y="-375" width="4500" height="4500" fill="rgb(94.921875%, 91.40625%, 40.795898%)" fill-opacity="1"/>
<path fill-rule="nonzero" fill="rgb(10.205078%, 10.205078%, 10.205078%)" fill-opacity="1" d="M 2666 2222.648438 C 2666 2222.648438 2940.359375 2689.75 3013.089844 2762.472656 C 3085.820312 2835.207031 3123.039062 3082.515625 2961.890625 3147.238281 C 2961.890625 3147.238281 3091.191406 2972.34375 2940.140625 2894.019531 C 2940.140625 2894.019531 2951.320312 3173.753906 2878.589844 3347.1875 C 2805.859375 3520.621094 2351.109375 3004.988281 2339.820312 3001.46875 C 2328.539062 2997.949219 2666 2222.648438 2666 2222.648438 Z M 2666 2222.648438 "/>
<path fill-rule="nonzero" fill="rgb(98.826599%, 75.78125%, 64.256287%)" fill-opacity="1" d="M 1821.210938 474.339844 C 1821.210938 474.339844 2263.179688 611.410156 2296.75 661.761719 C 2330.320312 712.109375 2330.320312 770.859375 2397.460938 782.039062 C 2464.589844 793.230469 2710.75 770.859375 2758.308594 826.800781 C 2805.859375 882.75 2733.128906 1050.589844 2733.128906 1050.589844 C 2733.128906 1050.589844 2790.859375 1077.351562 2806.679688 1097.128906 C 2822.511719 1116.910156 2812.621094 1156.46875 2812.621094 1156.46875 C 2812.621094 1156.46875 2856.140625 1168.339844 2856.140625 1186.140625 C 2856.140625 1203.941406 2848.230469 1237.570312 2848.230469 1237.570312 C 2848.230469 1237.570312 2868.011719 1298.878906 2923.390625 1320.640625 C 2978.78125 1342.398438 3083.609375 1362.179688 3117.230469 1463.058594 C 3150.871094 1563.941406 3032.179688 1690.53125 2957.019531 1749.871094 C 2881.859375 1809.210938 2733.140625 1982.089844 2716.359375 2060.421875 C 2699.570312 2138.75 2688.378906 2575.121094 2677.191406 2642.261719 C 2666 2709.398438 2570.890625 2888.425781 2587.679688 3050.671875 C 2587.679688 3050.671875 3197.488281 3235.292969 3454.851562 3750 L 470.671875 3750 L 1214.398438 1478.878906 Z M 1821.210938 474.339844 "/>
<path fill-rule="nonzero" fill="rgb(74.021912%, 36.473083%, 35.301208%)" fill-opacity="1" d="M 3123.03125 1498.960938 C 3072.488281 1544.808594 2997.460938 1601.378906 2907.539062 1633.140625 C 2739.558594 1692.480469 2165.730469 1771.609375 2064.949219 1645.019531 C 1964.171875 1518.429688 1964.148438 2503.480469 1964.148438 2503.480469 L 2517.75 3061.851562 C 2517.75 3061.851562 2686.910156 3087.167969 2816.011719 3147.238281 C 2683.960938 3079.917969 2587.679688 3050.660156 2587.679688 3050.660156 C 2570.898438 2888.417969 2666.011719 2709.390625 2677.199219 2642.25 C 2688.390625 2575.109375 2699.578125 2138.730469 2716.359375 2060.410156 C 2733.140625 1982.078125 2881.859375 1809.191406 2957.019531 1749.859375 C 3023.488281 1697.378906 3123.921875 1592.328125 3123.03125 1498.960938 Z M 3123.03125 1498.960938 "/>
<path fill-rule="nonzero" fill="rgb(74.021912%, 36.473083%, 35.301208%)" fill-opacity="1" d="M 2229.308594 661.050781 C 2190.738281 661.429688 2140.519531 669.191406 2088.148438 697.179688 C 2088.148438 697.179688 2147.5 712.96875 2156.390625 726.121094 C 2165.28125 739.269531 2156.390625 783.441406 2156.390625 783.441406 L 2123.191406 868.140625 C 2123.191406 868.140625 2346.398438 917.730469 2350.601562 914.230469 C 2353.570312 911.761719 2359.261719 821.601562 2362.378906 768.539062 C 2331.109375 747.210938 2323.890625 707.058594 2301.710938 669.710938 C 2301.199219 669.53125 2272.601562 660.648438 2229.308594 661.050781 Z M 2229.308594 661.050781 "/>
<path fill-rule="nonzero" fill="rgb(74.021912%, 36.473083%, 35.301208%)" fill-opacity="1" d="M 2733.738281 851.359375 C 2724.929688 851.371094 2715.730469 854.710938 2706.550781 863.191406 C 2664.589844 901.941406 2576.5 1029.609375 2576.5 1029.609375 C 2576.5 1029.609375 2691.179688 1065.949219 2733.140625 1050.570312 C 2733.140625 1050.570312 2779.871094 942.550781 2773.78125 870.941406 C 2762.691406 860.910156 2748.761719 851.339844 2733.738281 851.359375 Z M 2733.738281 851.359375 "/>
<path fill-rule="nonzero" fill="rgb(10.205078%, 10.205078%, 10.205078%)" fill-opacity="1" d="M 1734.730469 375.03125 C 1543.03125 378.101562 1085.519531 607.339844 1009.980469 700.941406 C 914.417969 819.390625 612.761719 1310.71875 416.953125 1831.019531 C 221.136719 2351.320312 394.570312 2664.628906 394.570312 2664.628906 C 372.195312 2340.140625 454.460938 2021.238281 454.460938 2021.238281 C 408.0625 2245.03125 454.460938 2866.039062 454.460938 2866.039062 C 375.304688 3060.75 317.484375 3540.847656 295.152344 3749.996094 L 1168.421875 3749.996094 C 1394.140625 3315.78125 1859.539062 2927.578125 2003.039062 2927.578125 C 2156.890625 2927.578125 2517.75 3061.851562 2517.75 3061.851562 C 2604.121094 3117.335938 2602.910156 2436.929688 2242.96875 1977.359375 C 2072.570312 1759.78125 1809.800781 398.878906 1809.800781 398.878906 C 1796.640625 381.640625 1770.230469 374.460938 1734.730469 375.03125 Z M 1734.730469 375.03125 "/>
<path fill-rule="nonzero" fill="rgb(10.205078%, 10.205078%, 10.205078%)" fill-opacity="1" d="M 2639.429688 1007.230469 C 2639.429688 1007.230469 2678.980469 920.980469 2726.140625 913.519531 C 2726.140625 913.519531 2691.179688 927.5 2689.78125 956.878906 C 2688.359375 986.25 2657.609375 1012.820312 2639.429688 1007.230469 Z M 2639.429688 1007.230469 "/>
<path fill-rule="nonzero" fill="rgb(100%, 33.325195%, 33.325195%)" fill-opacity="1" d="M 2762.679688 1078.441406 C 2750.851562 1078.460938 2736.910156 1081.628906 2722.640625 1091.839844 C 2684.589844 1119.058594 2647.808594 1237.988281 2647.808594 1237.988281 C 2647.808594 1237.988281 2623.160156 1246.398438 2664.589844 1261.789062 C 2706.019531 1277.171875 2848.25 1237.570312 2848.25 1237.570312 C 2848.25 1237.570312 2856.140625 1203.921875 2856.140625 1186.121094 C 2856.140625 1168.320312 2812.621094 1156.449219 2812.621094 1156.449219 C 2812.621094 1156.449219 2822.53125 1116.890625 2806.699219 1097.109375 C 2805.898438 1096.121094 2804.628906 1095.058594 2803.628906 1094.039062 L 2797.210938 1088.078125 C 2796.691406 1087.648438 2795.980469 1087.199219 2795.421875 1086.75 C 2792.820312 1085.21875 2780.238281 1078.429688 2762.671875 1078.441406 Z M 2762.679688 1078.441406 "/>
<path fill-rule="nonzero" fill="rgb(10.205078%, 10.205078%, 10.205078%)" fill-opacity="1" d="M 2812.621094 1156.46875 C 2812.621094 1156.46875 2714.949219 1165.28125 2707.960938 1175.070312 C 2700.96875 1184.859375 2672.460938 1238.011719 2647.808594 1238.011719 C 2623.171875 1238.011719 2623.171875 1246.398438 2623.171875 1246.398438 C 2623.171875 1246.398438 2652.359375 1277.171875 2664.601562 1261.789062 C 2676.839844 1246.398438 2718.078125 1189.058594 2730.5 1183.460938 C 2742.921875 1177.859375 2812.621094 1156.46875 2812.621094 1156.46875 Z M 2812.621094 1156.46875 "/>
<path fill-rule="nonzero" fill="rgb(10.205078%, 10.205078%, 10.205078%)" fill-opacity="1" d="M 2059 880.53125 L 2101.53125 867.679688 C 2101.53125 867.679688 2097.570312 810.320312 2139.109375 776.691406 C 2180.648438 743.070312 2220.210938 762.839844 2241.96875 746.03125 C 2241.96875 746.03125 2232.078125 773.730469 2218.230469 783.609375 L 2265.699219 803.390625 C 2265.699219 803.390625 2226.140625 821.191406 2187.570312 825.148438 C 2149 829.109375 2133.179688 891.421875 2059 880.53125 Z M 2059 880.53125 "/>
<path fill-rule="nonzero" fill="rgb(10.205078%, 10.205078%, 10.205078%)" fill-opacity="1" d="M 2261.75 690.648438 C 2261.75 690.648438 2124.171875 663.941406 2044.160156 730.210938 C 2044.160156 730.210938 2098.308594 681.941406 2169.769531 654.058594 C 2241.230469 626.160156 2256.800781 663.941406 2256.800781 663.941406 Z M 2261.75 690.648438 "/>
<path fill-rule="nonzero" fill="rgb(19.993591%, 19.993591%, 19.993591%)" fill-opacity="1" d="M 889.699219 1263.179688 C 889.699219 1263.179688 864.527344 1047.710938 976.417969 893.480469 C 976.417969 893.480469 872.914062 1078.558594 962.429688 1042.191406 C 1051.941406 1005.828125 1127.46875 843.589844 1289.71875 849.179688 C 1451.960938 854.769531 1714.628906 837.519531 1616.859375 812.621094 C 1519.101562 787.71875 1429.578125 756.871094 1429.578125 756.871094 C 1429.578125 756.871094 1935.890625 748.480469 1790.429688 846.378906 C 1644.980469 944.289062 1295.308594 927.5 1189.019531 958.28125 C 1082.710938 989.050781 889.699219 1263.179688 889.699219 1263.179688 Z M 889.699219 1263.179688 "/>
<path fill-rule="nonzero" fill="rgb(19.993591%, 19.993591%, 19.993591%)" fill-opacity="1" d="M 1499.230469 2315.289062 C 1499.230469 2315.289062 1356.808594 3100.742188 961.207031 3591.390625 C 961.207031 3591.390625 1522.960938 3157.882812 1499.230469 2315.289062 Z M 1499.230469 2315.289062 "/>
<path fill-rule="nonzero" fill="rgb(19.993591%, 19.993591%, 19.993591%)" fill-opacity="1" d="M 708.023438 1866.570312 C 708.023438 1866.570312 549.785156 2519.28125 692.203125 2956.9375 Z M 708.023438 1866.570312 "/>
<path fill-rule="nonzero" fill="rgb(10.205078%, 10.205078%, 10.205078%)" fill-opacity="1" d="M 1809.769531 398.890625 C 1809.769531 398.890625 2327.019531 1467.019531 2162.351562 1933.820312 C 2162.351562 1933.820312 2250.871094 1051.628906 1693.070312 525.480469 Z M 1809.769531 398.890625 "/>
</svg>
