<?xml version="1.0" encoding="UTF-8"?>
<svg xmlns="http://www.w3.org/2000/svg" xmlns:xlink="http://www.w3.org/1999/xlink" width="4000" height="4000" viewBox="0 0 4000 4000">
<rect x="-400" y="-400" width="4800" height="4800" fill="rgb(97.264099%, 93.75%, 78.514099%)" fill-opacity="1"/>
<path fill-rule="evenodd" fill="rgb(74.414062%, 83.59375%, 93.359375%)" fill-opacity="1" d="M 3660.140625 1333.078125 C 3660.140625 1333.078125 3187.78125 1438.328125 3077.160156 1434.058594 C 2966.550781 1429.789062 2805.109375 1414.148438 2796.140625 1276.191406 C 2779.210938 1015.710938 3563.699219 1303.949219 3660.140625 1333.078125 "/>
<path fill-rule="evenodd" fill="rgb(5.880737%, 5.099487%, 3.921509%)" fill-opacity="1" d="M 339.863281 3031.988281 C 339.863281 3031.988281 558.894531 3117.324219 706.8125 3029.144531 C 854.730469 2940.960938 1873.078125 2352.140625 1873.078125 2352.140625 L 1699.660156 2338.878906 L 339.863281 3031.988281 "/>
<path fill-rule="evenodd" fill="rgb(95.3125%, 67.771912%, 0%)" fill-opacity="1" d="M 1956.960938 2700.589844 C 2968.160156 2988.660156 3300.609375 2096.960938 3319.699219 1286.140625 L 2344.289062 1267.230469 L 1445.601562 2429.019531 C 1445.601562 2429.019531 1592.859375 2609.570312 1956.960938 2700.589844 "/>
<path fill-rule="evenodd" fill="rgb(95.3125%, 67.771912%, 0%)" fill-opacity="1" d="M 812.308594 3004.726562 C 812.308594 3004.726562 1040.871094 3059.628906 1175.488281 2952.238281 C 1310.109375 2844.851562 2239.398438 2123.609375 2239.398438 2123.609375 L 2065.78125 2133.941406 L 812.308594 3004.726562 "/>
<path fill-rule="evenodd" fill="rgb(9.397888%, 8.616638%, 9.008789%)" fill-opacity="1" d="M 2220.429688 1427.351562 L 1035.25 2849.851562 C 993.453125 2900.011719 4094.921875 2366.089844 2220.429688 1427.351562 "/>
<path fill-rule="evenodd" fill="rgb(100%, 100%, 100%)" fill-opacity="1" d="M 2086.898438 1587.921875 L 1035.199219 2850.210938 C 998.113281 2894.730469 3750.28125 2420.941406 2086.898438 1587.921875 "/>
<path fill-rule="evenodd" fill="rgb(9.397888%, 8.616638%, 9.008789%)" fill-opacity="1" d="M 2925.570312 934.128906 C 2925.570312 934.128906 2464.75 871.550781 2333.898438 1298.238281 C 2203.058594 1724.921875 2789.03125 1645.269531 2789.03125 1645.269531 C 3305.589844 1615.820312 3634.339844 1050.53125 2925.570312 934.128906 "/>
<path fill-rule="evenodd" fill="rgb(5.099487%, 5.099487%, 5.099487%)" fill-opacity="1" d="M 1927.609375 1779.488281 L 1035.148438 2850.648438 C 1003.671875 2888.421875 3339.121094 2486.371094 1927.609375 1779.488281 "/>
<path fill-rule="evenodd" fill="rgb(100%, 100%, 100%)" fill-opacity="1" d="M 3059.621094 1145.578125 C 3106.988281 1145.578125 3145.398438 1183.980469 3145.398438 1231.359375 C 3145.398438 1278.730469 3106.988281 1317.140625 3059.621094 1317.140625 C 3012.238281 1317.140625 2973.839844 1278.730469 2973.839844 1231.359375 C 2973.839844 1183.980469 3012.238281 1145.578125 3059.621094 1145.578125 "/>
<path fill-rule="evenodd" fill="rgb(10.205078%, 10.205078%, 10.205078%)" fill-opacity="1" d="M 3059.621094 1174 C 3091.289062 1174 3116.96875 1199.679688 3116.96875 1231.359375 C 3116.96875 1263.039062 3091.289062 1288.710938 3059.621094 1288.710938 C 3027.941406 1288.710938 3002.261719 1263.039062 3002.261719 1231.359375 C 3002.261719 1199.679688 3027.941406 1174 3059.621094 1174 "/>
<path fill-rule="evenodd" fill="rgb(9.397888%, 8.616638%, 9.008789%)" fill-opacity="1" d="M 3042.859375 1546.601562 C 3042.859375 1546.601562 3191.71875 1602.839844 3219.121094 1785.390625 C 3227.109375 1838.621094 3238.050781 1856.28125 3249.558594 1854.640625 C 3250.179688 1852.050781 3250.800781 1849.429688 3251.429688 1846.78125 L 3253.011719 1840.039062 C 3294.550781 1661.238281 3315.328125 1471.589844 3319.699219 1286.140625 L 3283.308594 1285.441406 L 3157.101562 1387.410156 L 3042.859375 1546.601562 "/>
<path fill-rule="evenodd" fill="rgb(9.397888%, 8.616638%, 9.008789%)" fill-opacity="1" d="M 2330.578125 1497.191406 C 2330.578125 1497.191406 2096.691406 1575.871094 1974.988281 1721.941406 C 1853.289062 1868 2463.828125 1077.761719 2463.828125 1077.761719 L 2330.578125 1497.191406 "/>
</svg>
