<?xml version="1.0" encoding="UTF-8"?>
<svg xmlns="http://www.w3.org/2000/svg" xmlns:xlink="http://www.w3.org/1999/xlink" width="3750" height="3750" viewBox="0 0 3750 3750">
<rect x="-375" y="-375" width="4500" height="4500" fill="rgb(59.568787%, 53.709412%, 44.309998%)" fill-opacity="1"/>
<path fill-rule="nonzero" fill="rgb(23.535156%, 15.696716%, 15.281677%)" fill-opacity="1" d="M 2418.480469 3749.996094 L 2727 3749.996094 C 2727 3749.996094 2562.640625 3179.832031 2251.980469 2995.722656 C 1941.320312 2811.613281 2022.949219 3234.28125 2022.949219 3234.28125 Z M 2418.480469 3749.996094 "/>
<path fill-rule="nonzero" fill="rgb(98.826599%, 75.78125%, 64.256287%)" fill-opacity="1" d="M 2970.339844 2192.769531 C 2970.339844 2192.769531 3018.691406 2441.078125 2992.308594 2467.03125 C 2965.921875 2492.980469 2891.988281 2471.730469 2872.671875 2497.550781 C 2853.359375 2523.371094 2898.929688 2578.371094 2868.46875 2612.890625 C 2838 2647.398438 2778.859375 2661.230469 2778.859375 2661.230469 C 2778.859375 2661.230469 2767.671875 2743.460938 2721.308594 2759.886719 C 2674.949219 2776.308594 2624.601562 2881.898438 2604.179688 2924.707031 C 2583.769531 2967.515625 2488.148438 2958.695312 2428.699219 2918.089844 C 2369.25 2877.484375 2251.980469 2807.550781 2251.980469 2807.550781 C 2251.980469 2807.550781 2048.808594 3034.953125 2027.960938 3203.339844 C 2027.960938 3203.339844 1385.179688 2733.371094 1161.410156 2745.550781 C 1161.410156 2745.550781 1372.820312 2583.5 1428.238281 2430.519531 C 1483.660156 2277.53125 1581.210938 1923.25 1581.210938 1923.25 L 1644.871094 1234.308594 L 2990.539062 1424.011719 L 3163.238281 2079.179688 Z M 2970.339844 2192.769531 "/>
<path fill-rule="nonzero" fill="rgb(74.021912%, 36.473083%, 35.301208%)" fill-opacity="1" d="M 2064.449219 1636.308594 C 2064.449219 1636.308594 2241.398438 1772.839844 2324.441406 1744.179688 C 2407.480469 1715.519531 2269.949219 1812.988281 2269.949219 1812.988281 C 2269.949219 1812.988281 2426.78125 1947.941406 2548.070312 1872.160156 C 2669.351562 1796.378906 2478.101562 1994.691406 2478.101562 1994.691406 C 2478.101562 1994.691406 2583.320312 2017.058594 2721.78125 2001.398438 C 2860.238281 1985.75 3009.390625 2169.769531 3009.390625 2169.769531 L 3186.789062 1905.269531 C 3186.789062 1905.269531 2991.339844 1631.359375 3003.46875 1636.308594 C 3015.609375 1641.261719 2383.589844 1173.769531 2383.589844 1173.769531 Z M 2064.449219 1636.308594 "/>
<path fill-rule="nonzero" fill="rgb(74.021912%, 36.473083%, 35.301208%)" fill-opacity="1" d="M 2026.351562 1806.898438 L 1995.328125 1752.480469 C 1995.328125 1752.480469 2024.949219 1587.808594 1993.671875 1530.019531 C 1962.390625 1472.21875 1888.238281 1426.488281 1847.449219 1491.25 C 1806.660156 1556.011719 1815.140625 1608.351562 1836.839844 1565.441406 C 1858.539062 1522.539062 1897.789062 1445.429688 1950.949219 1518.308594 C 2004.109375 1591.191406 1829.359375 1620.089844 1856.28125 1696.078125 C 1883.199219 1772.070312 1948.078125 1746.929688 1962.679688 1788.121094 C 1977.269531 1829.320312 2026.351562 1806.898438 2026.351562 1806.898438 Z M 2026.351562 1806.898438 "/>
<path fill-rule="nonzero" fill="rgb(10.205078%, 10.205078%, 10.205078%)" fill-opacity="1" d="M 2459.679688 642.089844 C 2459.679688 642.089844 2254.910156 505.910156 2035.75 583.539062 C 1816.589844 661.179688 1462.480469 933.671875 1396.378906 1255.929688 C 1330.28125 1578.179688 1379.828125 1959.089844 1379.828125 1959.089844 L 1409.238281 1868.03125 C 1409.238281 1868.03125 1450.261719 2171.308594 1457.730469 2192.378906 C 1465.191406 2213.460938 1428.238281 2430.519531 1428.238281 2430.519531 C 1428.238281 2430.519531 1581.371094 2300.378906 1602.351562 2212.300781 L 1572.238281 2341.558594 C 1572.238281 2341.558594 1672.5 2182.710938 1668.101562 2022.988281 L 1711.660156 2159.351562 C 1711.660156 2159.351562 1795.410156 1873.53125 1765.019531 1760.96875 C 1765.019531 1760.96875 1618.011719 1386.128906 1926.300781 1386.019531 L 1883.980469 1467.421875 C 1883.980469 1467.421875 2052.660156 1488.308594 2112.628906 1443.351562 L 1952.660156 1661.289062 C 1952.660156 1661.289062 2203.441406 1686.300781 2272.808594 1614.300781 C 2272.808594 1614.300781 2219.070312 1690.25 2170.519531 1740.660156 C 2170.519531 1740.660156 2259.550781 1737.578125 2375.011719 1635.011719 C 2375.011719 1635.011719 2389.941406 1677.160156 2290.109375 1783.679688 C 2290.109375 1783.679688 2478.289062 1939.960938 2669.351562 1796.378906 C 2669.351562 1796.378906 2469.601562 1928.808594 2383.808594 1954.449219 C 2383.808594 1954.449219 2702.460938 1903.238281 2800 1750.101562 C 2800 1750.101562 2601.671875 2033.820312 2513.160156 2065.171875 C 2513.160156 2065.171875 2758.058594 2153.929688 2966.320312 1871.441406 C 2966.320312 1871.441406 2925.269531 2063.550781 2767.550781 2207.488281 C 2767.550781 2207.488281 2977.050781 2142.761719 3038.949219 2049.679688 C 3038.949219 2049.679688 2985.039062 2192.109375 2917.171875 2268.328125 C 2917.171875 2268.328125 3096.738281 2266.390625 3162.058594 2129.398438 C 3162.058594 2129.398438 3075.230469 2326.179688 3014.03125 2381.070312 C 3014.03125 2381.070312 3298.449219 2541.210938 3430.390625 2110.238281 C 3430.390625 2110.238281 3471.058594 2318.78125 3304.589844 2491.601562 C 3304.589844 2491.601562 3624.808594 2297.519531 3551.628906 1635.640625 C 3478.441406 973.75 2808.101562 594.558594 2459.679688 642.089844 Z M 2459.679688 642.089844 "/>
<path fill-rule="nonzero" fill="rgb(74.021912%, 36.473083%, 35.301208%)" fill-opacity="1" d="M 1765.019531 1760.96875 C 1765.019531 1760.96875 1903.378906 1937.269531 1918.519531 1953.25 C 1933.671875 1969.230469 2029.140625 1975.738281 2029.140625 1975.738281 C 2029.140625 1975.738281 1855.660156 2184.230469 1765.019531 1760.96875 Z M 1765.019531 1760.96875 "/>
<path fill-rule="nonzero" fill="rgb(74.021912%, 36.473083%, 35.301208%)" fill-opacity="1" d="M 2004.058594 2406.800781 C 2004.058594 2406.800781 1999.289062 2686.890625 2030.289062 2793.308594 C 2046 2847.292969 2081.78125 2928.613281 2113.230469 2995.722656 C 2176.828125 2891.863281 2251.980469 2807.5625 2251.980469 2807.5625 C 2251.980469 2807.5625 2082.109375 2627.140625 2054.171875 2548.269531 Z M 2004.058594 2406.800781 "/>
<path fill-rule="nonzero" fill="rgb(10.205078%, 10.205078%, 10.205078%)" fill-opacity="1" d="M 2778.859375 2661.230469 C 2778.859375 2661.230469 2744.851562 2623.199219 2713.230469 2616.789062 C 2681.609375 2610.378906 2657 2604.839844 2649.761719 2591.480469 C 2642.511719 2578.109375 2651.738281 2563.941406 2630.480469 2563.089844 C 2609.210938 2562.230469 2609.578125 2582.230469 2627.839844 2595.890625 C 2646.089844 2609.539062 2696.570312 2625.210938 2713.398438 2634.339844 C 2730.230469 2643.46875 2778.859375 2661.230469 2778.859375 2661.230469 Z M 2778.859375 2661.230469 "/>
<path fill-rule="nonzero" fill="rgb(10.205078%, 10.205078%, 10.205078%)" fill-opacity="1" d="M 2901.359375 2453 C 2901.359375 2453 2856.019531 2410.359375 2819.121094 2431.730469 C 2819.121094 2431.730469 2840.519531 2441.941406 2863.519531 2443.28125 C 2886.53125 2444.621094 2901.359375 2453 2901.359375 2453 Z M 2901.359375 2453 "/>
<path fill-rule="nonzero" fill="rgb(36.473083%, 27.43988%, 27.050781%)" fill-opacity="1" d="M 2411.839844 3632.652344 C 2411.839844 3632.652344 2247.429688 2367.988281 805.710938 2317.398438 C 805.710938 2317.398438 704.539062 2431.21875 723.507812 2557.691406 C 723.507812 2557.691406 533.808594 2671.511719 533.808594 2816.941406 C 533.808594 2962.378906 318.816406 3202.664062 344.109375 3291.191406 C 369.402344 3379.71875 375.722656 3423.984375 375.722656 3423.984375 L 187.5 3749.996094 L 2418.480469 3749.996094 Z M 2411.839844 3632.652344 "/>
<path fill-rule="nonzero" fill="rgb(23.535156%, 15.696716%, 15.281677%)" fill-opacity="1" d="M 2253.75 3749.996094 C 2253.75 3749.996094 1690.980469 3164.726562 1586.640625 2987.671875 C 1482.308594 2810.621094 812.035156 2608.269531 521.160156 3259.574219 C 521.160156 3259.574219 808.828125 2788.382812 1264.898438 2859.925781 C 1264.898438 2859.925781 1423.628906 2859.925781 1486.230469 2971.707031 C 1548.820312 3083.488281 1546.589844 3208.683594 1694.140625 3347.292969 C 1841.691406 3485.902344 2253.75 3749.996094 2253.75 3749.996094 Z M 2253.75 3749.996094 "/>
<path fill-rule="nonzero" fill="rgb(23.535156%, 15.696716%, 15.281677%)" fill-opacity="1" d="M 1229.390625 3401.851562 C 1273.75 3476.929688 1283.941406 3627.269531 1284.019531 3750 L 1544.050781 3750 C 1435.441406 3512.964844 1229.390625 3401.851562 1229.390625 3401.851562 Z M 375.730469 3423.984375 L 187.507812 3750 L 295.289062 3750 C 301.671875 3662.59375 322.003906 3547.855469 375.730469 3423.984375 Z M 375.730469 3423.984375 "/>
<path fill-rule="nonzero" fill="rgb(23.535156%, 15.696716%, 15.281677%)" fill-opacity="1" d="M 802.121094 2546.929688 C 802.121094 2546.929688 853.539062 2473.160156 927.316406 2468.691406 C 1001.089844 2464.210938 1206.769531 2502.21875 1206.769531 2502.21875 C 1206.769531 2502.21875 931.078125 2500.371094 802.121094 2546.929688 Z M 802.121094 2546.929688 "/>
<path fill-rule="nonzero" fill="rgb(19.993591%, 19.993591%, 19.993591%)" fill-opacity="1" d="M 1560.519531 1159.828125 C 1560.519531 1159.828125 1645.769531 992.070312 1783.730469 914.738281 C 1921.699219 837.398438 1645.378906 1044.558594 1837.480469 1066.460938 C 2029.578125 1088.371094 2285.058594 964.839844 2285.058594 964.839844 C 2285.058594 964.839844 1867.308594 1150.769531 1803.96875 1121.03125 C 1740.640625 1091.289062 1560.519531 1159.828125 1560.519531 1159.828125 Z M 1560.519531 1159.828125 "/>
<path fill-rule="nonzero" fill="rgb(19.993591%, 19.993591%, 19.993591%)" fill-opacity="1" d="M 2214.820312 1226.890625 C 2270.308594 1207.238281 2441.570312 1059.609375 2484.988281 914.378906 C 2484.988281 914.378906 2557.441406 1187.429688 2214.820312 1226.890625 Z M 2214.820312 1226.890625 "/>
<path fill-rule="nonzero" fill="rgb(19.993591%, 19.993591%, 19.993591%)" fill-opacity="1" d="M 3107.191406 1345.191406 C 3107.191406 1345.191406 3102.179688 1558.289062 2949.449219 1733.140625 C 2949.449219 1733.140625 3206.5 1682.328125 3107.191406 1345.191406 Z M 3107.191406 1345.191406 "/>
<path fill-rule="nonzero" fill="rgb(74.021912%, 36.473083%, 35.301208%)" fill-opacity="1" d="M 2778.859375 2439.371094 C 2778.859375 2439.371094 2761.039062 2428.410156 2778.859375 2399.351562 C 2796.679688 2370.28125 2810.089844 2356.871094 2810.089844 2356.871094 C 2810.089844 2356.871094 2671.03125 2390.710938 2778.859375 2439.371094 Z M 2778.859375 2439.371094 "/>
<path fill-rule="nonzero" fill="rgb(74.021912%, 36.473083%, 35.301208%)" fill-opacity="1" d="M 2636.238281 2733.898438 C 2628.761719 2734.109375 2624.679688 2736.808594 2626.78125 2743.621094 C 2631.789062 2759.90625 2653.078125 2786.03125 2670.859375 2805.84375 C 2687.128906 2783.640625 2704.480469 2765.859375 2721.320312 2759.898438 C 2721.320312 2759.898438 2660.660156 2733.308594 2636.238281 2733.898438 Z M 2636.238281 2733.898438 "/>
<path fill-rule="nonzero" fill="rgb(74.021912%, 36.473083%, 35.301208%)" fill-opacity="1" d="M 2716.601562 2589.238281 C 2680.75 2589.140625 2649.769531 2591.46875 2649.769531 2591.46875 L 2648.230469 2603.621094 L 2778.851562 2661.230469 C 2778.851562 2661.230469 2814.191406 2652.921875 2844.308594 2633.21875 C 2844.308594 2633.210938 2844.308594 2633.210938 2844.308594 2633.191406 C 2844.511719 2632.441406 2843.859375 2628.050781 2819.121094 2606.011719 C 2804.101562 2592.628906 2757.230469 2589.371094 2716.601562 2589.238281 Z M 2716.601562 2589.238281 "/>
</svg>
