<?xml version="1.0" encoding="UTF-8"?>
<svg xmlns="http://www.w3.org/2000/svg" xmlns:xlink="http://www.w3.org/1999/xlink" width="3161" height="2830" viewBox="0 0 3161 2830">
<path fill-rule="evenodd" fill="rgb(23.143005%, 22.338867%, 12.156677%)" fill-opacity="1" d="M 0.5625 0.378906 L 3160.308594 0.378906 L 3160.308594 2829.765625 L 0.5625 2829.765625 L 0.5625 0.378906 "/>
<path fill-rule="evenodd" fill="rgb(14.892578%, 14.892578%, 0.389099%)" fill-opacity="1" d="M 938.84375 525.398438 C 947.15625 472.238281 1014.109375 233.238281 1062.511719 206.140625 C 1163.929688 149.371094 1147.308594 343.710938 1157.011719 430.589844 C 1211.558594 329.679688 1274.449219 243.859375 1335.980469 206.371094 C 1379.929688 177.359375 1419.941406 178.828125 1450.050781 202.710938 C 1450.199219 202.808594 1450.351562 202.878906 1450.5 202.980469 C 1450.46875 202.988281 1450.429688 203 1450.398438 203.011719 C 1546.890625 280.289062 1541.078125 587.199219 1236.179688 847.460938 C 1244.578125 874.898438 1248.28125 905.429688 1249.851562 939.28125 C 1273.808594 1116.351562 1525.769531 1154.359375 1662.378906 1185.710938 C 2035.210938 1271.269531 2165.679688 1237.351562 2487.148438 1518.679688 C 2489.769531 1520.980469 2492.390625 1523.351562 2495.019531 1525.761719 C 2558.851562 1583.988281 2609.359375 1659.511719 2643.089844 1743.160156 C 2675.769531 1821.21875 2695.230469 1908.96875 2690.730469 1998.054688 L 2690.699219 1997.984375 C 2690.609375 2002.820312 2690.449219 2007.65625 2690.25 2012.488281 C 2719.421875 2019.171875 2751.101562 2040.296875 2785.011719 2081.183594 C 2915.730469 2238.8125 2735.828125 2524.460938 2508.46875 2433.921875 C 2502.710938 2431.628906 2497.808594 2428.058594 2493.691406 2423.421875 C 2472.871094 2450.589844 2466.769531 2458.554688 2424.421875 2474.644531 C 2425.878906 2476.386719 2427.320312 2478.210938 2428.699219 2480.164062 C 2531.011719 2625.191406 2425.238281 2646.972656 2317.859375 2624.023438 C 2250.308594 2609.570312 1971.441406 2709.949219 1879.820312 2668.726562 C 1718.859375 2596.261719 1826.421875 2703.902344 1686.871094 2703.351562 C 1509.53125 2702.65625 1657.449219 2603.328125 1606.019531 2613.742188 C 1583.660156 2708.808594 1476.558594 2689.558594 1473.078125 2675.6875 C 1453.320312 2597.078125 1481.308594 2656.3125 1420.949219 2646.207031 C 1360.480469 2636.089844 1483.109375 2517.9375 1498.398438 2504.3125 C 1502.261719 2500.867188 1506.050781 2497.601562 1509.800781 2494.4375 C 1485.308594 2497.09375 1466.980469 2497.203125 1459.808594 2492.398438 C 1431.960938 2473.773438 1469.011719 2428.410156 1458.21875 2423.914062 C 1424.148438 2468.632812 1373.660156 2483.097656 1360.300781 2453.058594 C 1308.839844 2498.910156 1254.261719 2541.628906 1203.191406 2577.363281 C 1174 2663.753906 1103.410156 2674.183594 1047.941406 2668.40625 C 1040.179688 2671.613281 1033.039062 2674.203125 1026.589844 2676.121094 C 880.9375 2719.445312 919.535156 2648.890625 900.523438 2657.546875 C 816.757812 2695.773438 782.800781 2639.160156 818.714844 2607.703125 C 819.972656 2606.609375 702.109375 2642.246094 726.554688 2558.882812 C 733.449219 2520.269531 761.242188 2484.074219 831.589844 2480.105469 C 834.925781 2478.257812 838.449219 2476.460938 842.203125 2474.738281 C 895.96875 2450.089844 949.558594 2477.652344 986.253906 2464.476562 C 1040.648438 2444.960938 1088.550781 2382.542969 1112.601562 2360.351562 C 1191.160156 2287.878906 1170.378906 1990.636719 1142.828125 1936.683594 C 1027.398438 1836.929688 938.515625 1897.714844 829.269531 1640.761719 C 828.460938 1638.851562 827.664062 1637.011719 826.863281 1635.148438 C 825.058594 1630.960938 823.277344 1626.871094 821.511719 1622.871094 L 821.550781 1622.910156 C 796.757812 1566.511719 751.796875 1536.339844 741.132812 1505.941406 C 620.746094 1488.449219 378.960938 1344.890625 433.476562 1205.101562 C 435.105469 1200.910156 438.476562 1198.609375 442.855469 1197.691406 C 448.777344 1163.828125 469.117188 1128.460938 489.328125 1091.070312 C 519.835938 1034.621094 588.527344 876.25 600.496094 856.460938 C 644.550781 783.769531 792.730469 706.589844 934.695312 693.390625 C 931.054688 628.910156 932.710938 564.570312 938.84375 525.398438 Z M 1524.988281 2274.8125 C 1603.289062 2256.046875 1696.398438 2255.417969 1775.539062 2263.863281 C 1770.300781 2254.292969 1765.191406 2244.585938 1760.191406 2234.761719 L 1759.308594 2233.023438 L 1758.851562 2232.105469 C 1758.371094 2231.15625 1757.890625 2230.207031 1757.410156 2229.253906 C 1756.101562 2226.648438 1754.71875 2224.097656 1753.300781 2221.574219 C 1753.019531 2221.082031 1752.75 2220.589844 1752.46875 2220.101562 C 1751.078125 2217.675781 1749.640625 2215.285156 1748.148438 2212.933594 C 1747.878906 2212.496094 1747.589844 2212.0625 1747.308594 2211.625 C 1745.828125 2209.335938 1744.320312 2207.078125 1742.761719 2204.859375 C 1742.640625 2204.6875 1742.519531 2204.515625 1742.398438 2204.34375 C 1740.761719 2202.035156 1739.050781 2199.769531 1737.308594 2197.527344 C 1736.960938 2197.066406 1736.601562 2196.601562 1736.230469 2196.144531 C 1734.511719 2193.957031 1732.738281 2191.800781 1730.921875 2189.679688 C 1730.621094 2189.328125 1730.308594 2188.988281 1730.011719 2188.640625 C 1728.261719 2186.628906 1726.480469 2184.644531 1724.648438 2182.691406 C 1724.421875 2182.449219 1724.199219 2182.199219 1723.96875 2181.957031 C 1722.019531 2179.894531 1720.019531 2177.871094 1717.980469 2175.871094 C 1717.558594 2175.453125 1717.128906 2175.039062 1716.699219 2174.621094 C 1714.648438 2172.644531 1712.570312 2170.691406 1710.441406 2168.773438 C 1710.171875 2168.523438 1709.878906 2168.28125 1709.609375 2168.035156 C 1707.589844 2166.230469 1705.53125 2164.457031 1703.441406 2162.707031 C 1703.089844 2162.421875 1702.761719 2162.128906 1702.410156 2161.84375 C 1700.191406 2160.003906 1697.921875 2158.195312 1695.621094 2156.410156 C 1695.148438 2156.046875 1694.671875 2155.683594 1694.199219 2155.316406 C 1691.851562 2153.523438 1689.480469 2151.75 1687.058594 2150.011719 C 1686.859375 2149.867188 1686.648438 2149.730469 1686.460938 2149.585938 C 1684.128906 2147.925781 1681.769531 2146.296875 1679.378906 2144.6875 C 1678.941406 2144.394531 1678.511719 2144.097656 1678.078125 2143.808594 C 1675.609375 2142.160156 1673.101562 2140.542969 1670.570312 2138.949219 C 1670.058594 2138.628906 1669.550781 2138.3125 1669.039062 2137.996094 C 1666.421875 2136.367188 1663.769531 2134.753906 1661.078125 2133.175781 L 1660.949219 2133.097656 C 1658.28125 2131.53125 1655.558594 2129.996094 1652.828125 2128.476562 C 1652.308594 2128.191406 1651.800781 2127.902344 1651.28125 2127.617188 C 1648.589844 2126.140625 1645.871094 2124.683594 1643.109375 2123.246094 C 1642.609375 2122.984375 1642.089844 2122.722656 1641.578125 2122.457031 C 1638.828125 2121.035156 1636.050781 2119.628906 1633.238281 2118.246094 C 1633.109375 2118.183594 1632.988281 2118.117188 1632.859375 2118.058594 C 1629.96875 2116.640625 1627.039062 2115.25 1624.089844 2113.871094 C 1623.511719 2113.601562 1622.921875 2113.328125 1622.339844 2113.058594 C 1619.449219 2111.722656 1616.53125 2110.402344 1613.589844 2109.105469 C 1613.109375 2108.894531 1612.628906 2108.6875 1612.148438 2108.476562 C 1609.320312 2107.234375 1606.460938 2106.011719 1603.589844 2104.804688 C 1603.269531 2104.671875 1602.960938 2104.539062 1602.648438 2104.40625 C 1599.609375 2103.136719 1596.539062 2101.886719 1593.449219 2100.652344 C 1592.839844 2100.40625 1592.21875 2100.160156 1591.609375 2099.917969 C 1588.539062 2098.699219 1585.441406 2097.492188 1582.328125 2096.308594 C 1582.03125 2096.191406 1581.730469 2096.078125 1581.429688 2095.96875 C 1558.199219 2190.890625 1534.949219 2260.574219 1525.011719 2274.785156 L 1524.988281 2274.8125 "/>
<path fill-rule="evenodd" fill="rgb(54.881287%, 44.309998%, 41.967773%)" fill-opacity="1" d="M 890.15625 496.578125 C 898.46875 443.421875 965.417969 204.421875 1013.820312 177.320312 C 1127.550781 113.660156 1092.851562 365.761719 1113.261719 428.019531 C 1105.199219 440.96875 1090.238281 593.519531 1026.589844 758.238281 C 902.039062 1080.648438 868.65625 633.910156 890.15625 496.578125 "/>
<path fill-rule="evenodd" fill="rgb(54.881287%, 44.309998%, 41.967773%)" fill-opacity="1" d="M 1094.140625 1907.859375 C 1121.699219 1961.8125 1142.46875 2259.054688 1063.910156 2331.53125 C 1039.859375 2353.71875 991.964844 2416.140625 937.566406 2435.652344 C 900.867188 2448.828125 847.28125 2421.269531 793.515625 2445.917969 C 681.894531 2497.09375 758.433594 2608.382812 925.402344 2624.210938 C 943.355469 2625.898438 1108.730469 2693.199219 1155.710938 2544.976562 C 1207.789062 2380.644531 1325.351562 2301.027344 1334.890625 2100.613281 C 1341.140625 1969.421875 1380.421875 1706.941406 1192.859375 1713.578125 C 1117.460938 1716.25 1035.871094 1786.839844 1094.140625 1907.859375 "/>
<path fill-rule="evenodd" fill="rgb(54.881287%, 44.309998%, 41.967773%)" fill-opacity="1" d="M 1308.328125 2403.164062 C 1305.921875 2458.566406 1369.21875 2448.003906 1409.53125 2395.09375 C 1420.320312 2399.585938 1383.269531 2444.949219 1411.121094 2463.578125 C 1437.011719 2480.90625 1607.960938 2434.34375 1690.640625 2434.667969 C 1774.351562 2434.996094 2006.390625 2473.878906 2026.28125 2418.847656 C 2053.019531 2344.847656 1945.078125 2287.921875 1847.570312 2257.941406 C 1702.800781 2213.414062 1317.269531 2196.898438 1308.328125 2403.164062 "/>
<path fill-rule="evenodd" fill="rgb(70.896912%, 60.351562%, 55.664062%)" fill-opacity="1" d="M 1200.621094 906.46875 C 1221.300781 1086.980469 1476.058594 1125.300781 1613.691406 1156.890625 C 1986.53125 1242.449219 2116.988281 1208.53125 2438.460938 1489.859375 C 2660.238281 1683.949219 2728.398438 2084.207031 2503.511719 2325.308594 C 2386.460938 2450.785156 2476.230469 2411.664062 2244.558594 2491.105469 C 1983.140625 2580.75 1818.199219 2418.425781 1708.71875 2200.429688 C 1615.5 2014.832031 1239.871094 2033.765625 1094.140625 1907.859375 C 978.710938 1808.109375 889.828125 1868.894531 780.585938 1611.941406 C 690.542969 1400.191406 649.105469 1432.148438 880.457031 1221.121094 C 939.890625 1166.910156 1137.851562 929.75 1139.171875 928.910156 C 1139.578125 928.660156 1200.589844 906.25 1200.621094 906.46875 "/>
<path fill-rule="evenodd" fill="rgb(73.631287%, 53.318787%, 36.083984%)" fill-opacity="1" d="M 1200.621094 906.46875 C 1221.300781 1086.980469 1476.058594 1125.300781 1613.691406 1156.890625 C 1986.53125 1242.449219 2116.988281 1208.53125 2438.460938 1489.859375 C 2546.109375 1584.058594 2651.929688 1773.421875 2642.050781 1969.234375 C 2496.75 1681.828125 2400.421875 1784.46875 2333.589844 1621.871094 C 2263.519531 1451.351562 2095.828125 1419.988281 1913.53125 1450.941406 C 1786.179688 1472.550781 1718.820312 1279.148438 1408.300781 1283.820312 C 1270.019531 1285.910156 1125.359375 1178.210938 1098.871094 1051.980469 C 1094.601562 1031.671875 1088.300781 1013.859375 1080.519531 997.929688 C 1114.460938 958.109375 1138.710938 929.210938 1139.171875 928.910156 C 1139.578125 928.660156 1200.589844 906.25 1200.621094 906.46875 "/>
<path fill-rule="evenodd" fill="rgb(90.234375%, 85.546875%, 80.859375%)" fill-opacity="1" d="M 1830.28125 2384.066406 C 1783.378906 2332.515625 1743.28125 2269.246094 1708.71875 2200.429688 C 1615.5 2014.832031 1239.871094 2033.765625 1094.140625 1907.859375 C 978.710938 1808.109375 889.828125 1868.894531 780.585938 1611.941406 C 777.945312 1605.761719 775.371094 1599.808594 772.824219 1594.050781 C 844.070312 1679.800781 984.59375 1742.011719 1080.441406 1738.519531 C 1192.140625 1734.449219 1300.191406 1740.601562 1398.859375 1788.589844 C 1470.71875 1823.558594 1538.238281 1794.371094 1654.011719 1848.914062 C 1698.378906 1869.816406 1753.070312 1871.472656 1799.550781 1931.9375 C 1856.761719 2006.363281 2107.089844 2263.949219 2026.28125 2418.847656 C 1997.980469 2473.054688 1900.75 2448.097656 1830.28125 2384.066406 "/>
<path fill-rule="evenodd" fill="rgb(54.881287%, 44.309998%, 41.967773%)" fill-opacity="1" d="M 597.058594 841.679688 C 585.257812 861.730469 517.730469 1022.269531 487.730469 1079.5 C 467.789062 1117.550781 447.699219 1153.539062 441.976562 1187.988281 C 435.074219 1229.308594 448.035156 1265.21875 461.828125 1299.648438 C 489.082031 1367.660156 545.628906 1422.820312 641.652344 1452.378906 C 707.355469 1472.609375 780.71875 1480.910156 828.050781 1466.089844 C 1075.859375 1388.5 1200.410156 1270.421875 1201.398438 1017.558594 C 1203.378906 507.648438 698.800781 668.570312 597.058594 841.679688 "/>
<path fill-rule="evenodd" fill="rgb(70.896912%, 60.351562%, 55.664062%)" fill-opacity="1" d="M 551.8125 827.640625 C 539.839844 847.429688 471.148438 1005.789062 440.640625 1062.25 C 420.351562 1099.789062 399.921875 1135.289062 394.09375 1169.28125 C 387.089844 1210.039062 400.289062 1245.449219 414.3125 1279.441406 C 442.023438 1346.53125 499.570312 1400.949219 597.242188 1430.128906 C 664.089844 1450.078125 739.703125 1461.03125 786.867188 1443.671875 C 995.277344 1366.988281 1201.25 1241.820312 1202.21875 992.371094 C 1202.820312 838.398438 1200.640625 738.960938 1036.011719 679.871094 C 868.523438 619.75 612.230469 727.949219 551.8125 827.640625 "/>
<path fill-rule="evenodd" fill="rgb(54.881287%, 44.309998%, 41.967773%)" fill-opacity="1" d="M 1843.089844 2203.605469 C 2061.511719 2424.78125 2060.449219 2433.804688 1784.21875 2440.796875 C 1587.820312 2445.773438 1733.5 2598.34375 1799.199219 2615.765625 C 1896.308594 2641.558594 2169.691406 2556.636719 2237.238281 2571.074219 C 2344.621094 2594.042969 2414.050781 2580.167969 2311.738281 2435.148438 C 2261.140625 2363.445312 2188 2436.457031 2333.660156 2156.007812 C 2488.410156 1858.050781 2262.160156 1622.941406 2048.089844 1676.328125 C 1819.339844 1733.378906 1588.191406 1945.503906 1843.089844 2203.605469 "/>
<path fill-rule="evenodd" fill="rgb(70.896912%, 60.351562%, 55.664062%)" fill-opacity="1" d="M 1872.578125 2202.796875 C 2053.039062 2417.410156 2039.449219 2408.027344 1763.320312 2417.8125 C 1657.46875 2421.5625 1598.109375 2343.246094 1449.710938 2475.488281 C 1434.429688 2489.113281 1311.789062 2607.265625 1372.261719 2617.386719 C 1432.621094 2627.492188 1404.628906 2568.257812 1424.390625 2646.867188 C 1427.871094 2660.738281 1534.96875 2679.984375 1557.339844 2584.917969 C 1608.769531 2574.503906 1460.851562 2673.835938 1638.191406 2674.53125 C 1777.730469 2675.082031 1670.171875 2567.4375 1831.128906 2639.902344 C 1922.761719 2681.128906 2201.628906 2580.746094 2269.171875 2595.199219 C 2376.550781 2618.148438 2482.328125 2596.371094 2380.011719 2451.34375 C 2329.410156 2379.636719 2219.941406 2460.570312 2365.609375 2180.121094 C 2520.351562 1882.15625 2291.671875 1638.160156 2080.03125 1700.441406 C 1845.171875 1769.550781 1626.808594 1910.511719 1872.578125 2202.796875 "/>
<path fill-rule="evenodd" fill="rgb(90.234375%, 85.546875%, 80.859375%)" fill-opacity="1" d="M 605.664062 936.121094 C 656.78125 883.03125 772.15625 816.488281 830.351562 893.359375 C 875.289062 952.738281 892.949219 993.320312 857.699219 1070.789062 C 829.351562 1133.070312 728.226562 1145.21875 666.460938 1126.5 C 559.078125 1093.960938 511.089844 1034.371094 605.664062 936.121094 "/>
<path fill-rule="evenodd" fill="rgb(70.896912%, 60.351562%, 55.664062%)" fill-opacity="1" d="M 2736.320312 2052.363281 C 2867.050781 2209.988281 2687.140625 2495.636719 2459.789062 2405.101562 C 2421.421875 2389.824219 2421.070312 2318.597656 2436.03125 2245.855469 C 2464.308594 2108.199219 2575.328125 1858.238281 2736.320312 2052.363281 "/>
<path fill-rule="evenodd" fill="rgb(9.397888%, 9.008789%, 12.547302%)" fill-opacity="1" d="M 632.621094 1047.441406 C 644.050781 995.109375 663.429688 959.730469 694.511719 945.910156 C 779.175781 908.28125 836.136719 1019.820312 743.210938 1062.308594 C 717.011719 1074.28125 626.539062 1075.25 632.621094 1047.441406 "/>
<path fill-rule="evenodd" fill="rgb(73.631287%, 53.318787%, 36.083984%)" fill-opacity="1" d="M 419.320312 1235.121094 C 382.363281 1186.96875 500.234375 1082.898438 620.503906 1216.949219 C 665.679688 1267.28125 682.265625 1349.398438 594.980469 1375.050781 C 520.339844 1397.019531 406.46875 1328.46875 419.320312 1235.121094 "/>
<path fill-rule="evenodd" fill="rgb(33.738708%, 25.097656%, 17.259216%)" fill-opacity="1" d="M 384.785156 1176.28125 C 393.101562 1154.921875 446.449219 1182.300781 449.84375 1194.800781 C 455.289062 1214.828125 422.984375 1279.101562 411.847656 1273.421875 C 401.769531 1268.28125 368.671875 1217.601562 384.785156 1176.28125 "/>
<path fill-rule="evenodd" fill="rgb(73.631287%, 63.084412%, 56.834412%)" fill-opacity="1" d="M 1067.160156 596.648438 C 1316.730469 -315.550781 1775.109375 395.109375 1120.480469 871.589844 C 793.402344 1109.628906 1063.359375 610.539062 1067.160156 596.648438 "/>
<path fill-rule="evenodd" fill="rgb(73.631287%, 53.318787%, 36.083984%)" fill-opacity="1" d="M 1401.808594 174.160156 C 1207.671875 220.949219 951.507812 859.429688 972.84375 930.398438 C 861.257812 907.429688 1187.910156 25.621094 1401.808594 174.160156 "/>
<path fill-rule="evenodd" fill="rgb(32.542419%, 25.87738%, 23.535156%)" fill-opacity="1" d="M 1070.601562 813.570312 C 1148.988281 642.761719 1206.398438 514.328125 1248.941406 423.160156 C 1388.75 123.46875 1439.421875 261.988281 1377.699219 467.230469 C 1307.03125 702.289062 1031.109375 899.609375 1070.601562 813.570312 "/>
<path fill-rule="evenodd" fill="rgb(90.234375%, 90.234375%, 90.234375%)" fill-opacity="1" d="M 713.289062 958.390625 C 666.695312 964.839844 625.136719 1068.960938 719.132812 1004.511719 C 732.492188 995.359375 748.828125 953.46875 713.289062 958.390625 "/>
<path fill-rule="evenodd" fill="rgb(70.896912%, 60.351562%, 55.664062%)" fill-opacity="1" d="M 875.628906 2460.738281 C 735.082031 2429.679688 687.222656 2477.644531 677.867188 2530.058594 C 653.421875 2613.421875 771.285156 2577.789062 770.027344 2578.878906 C 734.113281 2610.335938 768.070312 2666.953125 851.839844 2628.722656 C 870.847656 2620.066406 832.246094 2690.621094 977.90625 2647.300781 C 1079.53125 2617.074219 1354.359375 2420.3125 1476.320312 2245.960938 C 1509.929688 2197.921875 1695.738281 1515.808594 1518.128906 1367.289062 C 1154.03125 1156.519531 1262.761719 2038.0625 1251.910156 2091.023438 C 1214.789062 2272.347656 1062.011719 2421.460938 875.628906 2460.738281 "/>
<path fill-rule="evenodd" fill="rgb(32.542419%, 25.87738%, 23.535156%)" fill-opacity="1" d="M 572.789062 1230.289062 C 560.363281 1233.648438 559.375 1218.898438 567.671875 1214.761719 C 576.53125 1210.351562 586.808594 1226.511719 572.789062 1230.289062 "/>
<path fill-rule="evenodd" fill="rgb(32.542419%, 25.87738%, 23.535156%)" fill-opacity="1" d="M 553.964844 1279.03125 C 541.53125 1282.378906 540.527344 1267.640625 548.84375 1263.5 C 557.6875 1259.089844 567.984375 1275.25 553.964844 1279.03125 "/>
<path fill-rule="evenodd" fill="rgb(32.542419%, 25.87738%, 23.535156%)" fill-opacity="1" d="M 514.65625 1246.78125 C 502.230469 1250.140625 501.21875 1235.378906 509.546875 1231.238281 C 518.382812 1226.828125 528.6875 1242.988281 514.65625 1246.78125 "/>
<path fill-rule="evenodd" fill="rgb(32.542419%, 25.87738%, 23.535156%)" fill-opacity="1" d="M 454.4375 1283.378906 C 442.007812 1286.738281 441.019531 1271.988281 449.324219 1267.851562 C 458.183594 1263.441406 468.460938 1279.601562 454.4375 1283.378906 "/>
<path fill-rule="evenodd" fill="rgb(32.542419%, 25.87738%, 23.535156%)" fill-opacity="1" d="M 478.363281 1214.660156 C 465.945312 1218.019531 464.949219 1203.269531 473.261719 1199.128906 C 482.113281 1194.71875 492.398438 1210.878906 478.363281 1214.660156 "/>
<path fill-rule="evenodd" fill="rgb(32.542419%, 25.87738%, 23.535156%)" fill-opacity="1" d="M 524.191406 1191.359375 C 511.765625 1194.710938 510.753906 1179.96875 519.082031 1175.820312 C 527.917969 1171.410156 538.195312 1187.578125 524.191406 1191.359375 "/>
<path fill-rule="evenodd" fill="rgb(32.542419%, 25.87738%, 23.535156%)" fill-opacity="1" d="M 505.699219 1306.789062 C 493.261719 1310.140625 492.246094 1295.398438 500.589844 1291.25 C 509.414062 1286.851562 519.714844 1303.011719 505.699219 1306.789062 "/>
</svg>
