<?xml version="1.0" encoding="UTF-8"?>
<svg xmlns="http://www.w3.org/2000/svg" xmlns:xlink="http://www.w3.org/1999/xlink" width="3750" height="3525" viewBox="0 0 3750 3525">
<rect x="-375" y="-352.5" width="4500" height="4230" fill="rgb(36.083984%, 36.863708%, 43.530273%)" fill-opacity="1"/>
<path fill-rule="nonzero" fill="rgb(11.767578%, 11.767578%, 11.767578%)" fill-opacity="1" d="M 1263.980469 2331.5 C 1263.980469 2331.5 905.785156 2350 535.710938 2692.328125 C 165.632812 3034.648438 211.890625 3525 211.890625 3525 L 3012.589844 3525 C 3012.589844 3525 2938.578125 3312.207031 2804.429688 3168.800781 C 2670.269531 3025.394531 2473.671875 2969.882812 2441.289062 2868.113281 C 2408.910156 2766.34375 1689.570312 2322.25 1263.980469 2331.5 Z M 1263.980469 2331.5 "/>
<path fill-rule="nonzero" fill="rgb(30.200195%, 30.200195%, 30.200195%)" fill-opacity="1" d="M 2386.671875 695.949219 L 2700.691406 733.570312 C 2700.691406 733.570312 2630.359375 532.398438 2555.128906 514.410156 C 2479.890625 496.421875 2380.128906 617.441406 2380.128906 617.441406 Z M 2386.671875 695.949219 "/>
<path fill-rule="nonzero" fill="rgb(100%, 65.039062%, 51.756287%)" fill-opacity="1" d="M 2664.121094 2671.617188 C 2658.039062 2666.421875 2651.878906 2661.230469 2645.988281 2656.023438 C 2636.320312 2647.476562 2626.898438 2638.914062 2617.71875 2630.34375 C 2608.539062 2621.773438 2599.609375 2613.195312 2590.898438 2604.609375 C 2582.199219 2596.023438 2573.730469 2587.429688 2565.5 2578.835938 C 2557.261719 2570.238281 2549.25 2561.644531 2541.46875 2553.050781 C 2533.691406 2544.453125 2526.128906 2535.855469 2518.789062 2527.265625 C 2511.441406 2518.679688 2504.320312 2510.101562 2497.410156 2501.519531 C 2490.5 2492.949219 2483.789062 2484.378906 2477.289062 2475.828125 C 2470.800781 2467.28125 2464.511719 2458.738281 2458.421875 2450.21875 C 2452.320312 2441.699219 2446.429688 2433.210938 2440.730469 2424.730469 C 2435.03125 2416.25 2429.53125 2407.78125 2424.210938 2399.351562 C 2418.890625 2390.921875 2413.75 2382.511719 2408.808594 2374.128906 C 2403.859375 2365.75 2399.089844 2357.410156 2394.488281 2349.089844 C 2389.898438 2340.78125 2385.480469 2332.488281 2381.230469 2324.25 C 2376.980469 2316 2372.910156 2307.800781 2368.988281 2299.628906 C 2365.070312 2291.46875 2361.320312 2283.351562 2357.71875 2275.269531 C 2354.121094 2267.191406 2350.679688 2259.160156 2347.390625 2251.171875 C 2344.101562 2243.191406 2340.960938 2235.269531 2337.96875 2227.378906 C 2334.980469 2219.5 2332.128906 2211.679688 2329.429688 2203.910156 C 2326.71875 2196.140625 2324.140625 2188.429688 2321.699219 2180.78125 C 2319.269531 2173.128906 2316.96875 2165.53125 2314.789062 2158.011719 C 2312.609375 2150.488281 2310.570312 2143.03125 2308.640625 2135.648438 C 2306.710938 2128.261719 2304.890625 2120.941406 2303.199219 2113.699219 C 2301.5 2106.449219 2299.929688 2099.28125 2298.460938 2092.179688 C 2296.980469 2085.089844 2295.628906 2078.078125 2294.371094 2071.140625 C 2293.109375 2064.210938 2291.949219 2057.351562 2290.890625 2050.589844 C 2289.828125 2043.820312 2288.871094 2037.128906 2288 2030.539062 C 2287.128906 2023.941406 2286.351562 2017.449219 2285.648438 2011.03125 C 2284.949219 2004.621094 2284.339844 1998.308594 2283.808594 1992.089844 C 2282.738281 1979.648438 2281.980469 1967.601562 2281.5 1955.96875 C 2281.011719 1944.339844 2280.789062 1933.140625 2280.789062 1922.378906 C 2280.789062 1911.628906 2281 1901.339844 2281.378906 1891.519531 C 2281.761719 1881.710938 2282.320312 1872.378906 2282.988281 1863.570312 C 2283.660156 1854.761719 2284.449219 1846.46875 2285.320312 1838.730469 C 2286.191406 1830.980469 2287.128906 1823.789062 2288.089844 1817.179688 C 2289.058594 1810.570312 2290.050781 1804.53125 2291.019531 1799.109375 C 2292.941406 1788.28125 2294.78125 1779.890625 2296.128906 1774.21875 C 2297.480469 1768.550781 2298.351562 1765.589844 2298.351562 1765.589844 L 1695.988281 1697.710938 C 1682.808594 1771.308594 1666.53125 1849.519531 1643.308594 1933.671875 C 1532.289062 2336.128906 1263.980469 2331.5 1263.980469 2331.5 C 1263.980469 2331.5 1361.128906 2363.878906 1467.53125 2442.519531 C 1573.921875 2521.160156 1541.539062 2627.566406 1953.25 2868.117188 C 2364.96875 3108.667969 2441.289062 3087.84375 2464.421875 3060.085938 C 2487.550781 3032.332031 2457.480469 2868.113281 2459.789062 2847.296875 C 2462.109375 2826.480469 2575.441406 2706.207031 2647.140625 2676.140625 C 2651.71875 2674.222656 2657.449219 2672.734375 2664.121094 2671.617188 Z M 2664.121094 2671.617188 "/>
<path fill-rule="nonzero" fill="rgb(11.767578%, 11.767578%, 11.767578%)" fill-opacity="1" d="M 2546.949219 609.269531 C 2546.949219 609.269531 2620.550781 646.890625 2627.089844 741.75 C 2633.628906 836.609375 2367.039062 764.640625 2367.039062 764.640625 L 2380.128906 617.441406 C 2380.128906 617.441406 2476.621094 552.03125 2546.949219 609.269531 Z M 2546.949219 609.269531 "/>
<path fill-rule="nonzero" fill="rgb(100%, 85.9375%, 75.78125%)" fill-opacity="1" d="M 2547.308594 684.308594 C 2266.351562 686.050781 2070.628906 793.230469 1911.609375 999.230469 C 1750.628906 1207.78125 1745.859375 1419.289062 1695.988281 1697.710938 L 2298.351562 1765.589844 C 2298.351562 1765.589844 2297.480469 1768.550781 2296.128906 1774.21875 C 2294.78125 1779.890625 2292.941406 1788.28125 2291.019531 1799.109375 C 2290.050781 1804.53125 2289.058594 1810.570312 2288.089844 1817.179688 C 2287.128906 1823.789062 2286.191406 1830.980469 2285.320312 1838.730469 C 2284.449219 1846.46875 2283.660156 1854.761719 2282.988281 1863.570312 C 2282.320312 1872.378906 2281.769531 1881.710938 2281.378906 1891.519531 C 2281 1901.339844 2280.78125 1911.628906 2280.789062 1922.378906 C 2280.789062 1933.140625 2281.011719 1944.339844 2281.5 1955.96875 C 2281.980469 1967.601562 2282.738281 1979.648438 2283.808594 1992.089844 C 2284.339844 1998.308594 2284.949219 2004.621094 2285.648438 2011.03125 C 2286.351562 2017.449219 2287.128906 2023.941406 2288 2030.539062 C 2288.871094 2037.128906 2289.828125 2043.820312 2290.890625 2050.589844 C 2291.949219 2057.351562 2293.109375 2064.210938 2294.371094 2071.140625 C 2295.628906 2078.078125 2296.980469 2085.089844 2298.460938 2092.179688 C 2299.929688 2099.28125 2301.5 2106.449219 2303.199219 2113.699219 C 2304.890625 2120.941406 2306.710938 2128.261719 2308.640625 2135.648438 C 2310.570312 2143.03125 2312.609375 2150.488281 2314.789062 2158.011719 C 2316.96875 2165.53125 2319.269531 2173.128906 2321.699219 2180.78125 C 2324.140625 2188.429688 2326.71875 2196.140625 2329.429688 2203.910156 C 2332.128906 2211.679688 2334.980469 2219.5 2337.96875 2227.378906 C 2340.960938 2235.269531 2344.101562 2243.191406 2347.390625 2251.171875 C 2350.679688 2259.160156 2354.121094 2267.191406 2357.71875 2275.269531 C 2361.320312 2283.351562 2365.070312 2291.46875 2368.988281 2299.628906 C 2372.910156 2307.800781 2376.980469 2316 2381.230469 2324.25 C 2385.480469 2332.488281 2389.898438 2340.78125 2394.488281 2349.089844 C 2399.089844 2357.410156 2403.859375 2365.75 2408.808594 2374.128906 C 2413.75 2382.511719 2418.890625 2390.921875 2424.210938 2399.351562 C 2429.53125 2407.78125 2435.03125 2416.25 2440.730469 2424.730469 C 2446.429688 2433.210938 2452.320312 2441.699219 2458.421875 2450.21875 C 2464.511719 2458.738281 2470.800781 2467.28125 2477.289062 2475.828125 C 2483.789062 2484.378906 2490.5 2492.949219 2497.410156 2501.519531 C 2504.320312 2510.101562 2511.441406 2518.679688 2518.789062 2527.265625 C 2526.128906 2535.855469 2533.691406 2544.453125 2541.46875 2553.050781 C 2549.25 2561.644531 2557.261719 2570.238281 2565.5 2578.835938 C 2573.730469 2587.429688 2582.199219 2596.023438 2590.898438 2604.609375 C 2599.609375 2613.195312 2608.539062 2621.773438 2617.71875 2630.34375 C 2626.898438 2638.914062 2636.320312 2647.476562 2645.988281 2656.023438 C 2651.878906 2661.230469 2658.039062 2666.421875 2664.121094 2671.617188 C 2762.050781 2655.222656 3070.660156 2720.085938 3142.128906 2720.085938 C 3218.449219 2720.085938 3273.960938 2639.128906 3283.21875 2595.179688 C 3292.46875 2551.234375 3269.339844 2414.769531 3269.339844 2414.769531 C 3269.339844 2414.769531 3334.109375 2363.878906 3336.421875 2351.160156 C 3338.730469 2338.441406 3326.011719 2291.019531 3326.011719 2291.019531 C 3343.359375 2287.550781 3390.769531 2235.519531 3390.769531 2218.171875 C 3390.769531 2200.820312 3384.980469 2086.328125 3384.980469 2086.328125 C 3523.761719 2056.261719 3539.960938 1984.550781 3539.960938 1956.789062 C 3539.960938 1929.039062 3394.238281 1595.96875 3394.238281 1595.96875 C 3394.238281 1595.96875 3438.179688 1457.191406 3426.621094 1415.558594 C 3415.050781 1373.929688 3382.671875 1195.828125 3354.910156 1096.371094 C 3327.160156 996.910156 3230.019531 781.800781 2804.429688 707.78125 C 2711.328125 691.589844 2625.980469 683.820312 2547.308594 684.308594 Z M 2547.308594 684.308594 "/>
<path fill-rule="nonzero" fill="rgb(99.609375%, 50.584412%, 38.818359%)" fill-opacity="1" d="M 2521.441406 684.859375 C 2254.300781 692.890625 2065.691406 799.621094 1911.609375 999.230469 C 1708.070312 1262.910156 1754.339844 1531.210938 1643.308594 1933.671875 C 1609.101562 2057.699219 1559.929688 2142.96875 1508.300781 2201.71875 C 1669.679688 2189.21875 1753.308594 2228.140625 1749.699219 2303.75 C 1746.800781 2364.75 1804.039062 2620.65625 1847.070312 2802.835938 C 1871.960938 2819.011719 1899.269531 2835.957031 1928.769531 2853.570312 C 1959.699219 2728.550781 1999.511719 2555.71875 1999.511719 2493.410156 C 1999.511719 2391.640625 1967.128906 2363.878906 1906.988281 2243.609375 C 1846.859375 2123.328125 1971.75 1933.671875 1971.75 1933.671875 C 1971.75 1933.671875 2008.769531 1984.550781 2027.269531 2030.808594 C 2045.769531 2077.070312 2184.550781 2026.191406 2184.550781 2026.191406 C 2184.550781 2026.191406 2360.328125 2604.4375 2411.21875 2646.070312 C 2462.101562 2687.703125 2624.019531 2683.074219 2624.019531 2683.074219 L 2629.488281 2684.964844 C 2635.558594 2681.582031 2641.511719 2678.5 2647.140625 2676.140625 C 2718.839844 2646.070312 3065.800781 2720.085938 3142.128906 2720.085938 C 3175.75 2720.085938 3205.308594 2704.363281 3228.679688 2683.03125 C 3073.550781 2680.019531 2775.679688 2512.101562 2721.160156 2424.019531 C 2661.019531 2326.878906 2531.5 2137.210938 2536.121094 2049.320312 C 2540.75 1961.421875 2637.890625 1799.511719 2637.890625 1665.359375 C 2637.890625 1531.210938 2466.730469 1087.121094 2475.980469 925.210938 C 2481.230469 833.289062 2503.269531 744.960938 2521.441406 684.859375 Z M 2521.441406 684.859375 "/>
<path fill-rule="nonzero" fill="rgb(100%, 65.039062%, 51.756287%)" fill-opacity="1" d="M 3183.761719 1402.839844 C 3183.761719 1402.839844 3246.210938 1444.46875 3228.859375 1499.980469 L 3267.019531 1506.921875 L 3241.578125 1564.75 C 3241.578125 1564.75 3372.269531 1553.179688 3363.011719 1508.078125 C 3353.761719 1462.980469 3285.53125 1419.03125 3285.53125 1419.03125 Z M 3183.761719 1402.839844 "/>
<path fill-rule="nonzero" fill="rgb(100%, 100%, 100%)" fill-opacity="1" d="M 3134.03125 1546.25 C 3134.03125 1546.25 3247.21875 1588.019531 3241.578125 1564.75 C 3238.941406 1553.859375 3265.339844 1483.121094 3289.480469 1488.359375 L 3198.710938 1488.359375 L 3113.660156 1507.988281 C 3113.660156 1507.988281 3110.238281 1537.890625 3134.03125 1546.25 Z M 3134.03125 1546.25 "/>
<path fill-rule="nonzero" fill="rgb(11.767578%, 11.767578%, 11.767578%)" fill-opacity="1" d="M 3086.609375 1511.550781 C 3086.609375 1511.550781 3186.070312 1482.640625 3212.671875 1478.011719 C 3239.269531 1473.390625 3276.28125 1478.011719 3276.28125 1478.011719 C 3276.28125 1478.011719 3261.238281 1422.5 3208.039062 1419.03125 C 3154.839844 1415.558594 3125.929688 1450.25 3125.929688 1450.25 L 3152.53125 1419.03125 C 3152.53125 1419.03125 3066.949219 1435.21875 3042.660156 1456.039062 C 3018.378906 1476.859375 3088.929688 1391.269531 3128.25 1386.648438 C 3167.570312 1382.019531 3299.410156 1380.871094 3299.410156 1380.871094 L 3265.871094 1402.839844 C 3265.871094 1402.839844 3297.089844 1391.269531 3314.441406 1417.871094 C 3331.78125 1444.46875 3339.878906 1460.660156 3353.761719 1462.980469 C 3353.761719 1462.980469 3320.21875 1491.890625 3306.339844 1491.890625 L 3320.21875 1510.390625 L 3267.019531 1506.921875 C 3267.019531 1506.921875 3254.300781 1555.5 3241.578125 1564.75 C 3241.578125 1564.75 3228.859375 1516.179688 3228.859375 1499.980469 C 3228.859375 1499.980469 3162.941406 1497.671875 3136.339844 1509.238281 C 3109.738281 1520.800781 3134.03125 1546.25 3134.03125 1546.25 C 3134.03125 1546.25 3092.390625 1527.738281 3086.609375 1511.550781 Z M 3086.609375 1511.550781 "/>
<path fill-rule="nonzero" fill="rgb(100%, 65.039062%, 51.756287%)" fill-opacity="1" d="M 3280.898438 1871.21875 C 3280.898438 1871.21875 3213.820312 2000.75 3299.410156 2043.53125 C 3299.410156 2043.53125 3150.21875 2007.679688 3280.898438 1871.21875 Z M 3280.898438 1871.21875 "/>
<path fill-rule="nonzero" fill="rgb(99.609375%, 50.584412%, 38.818359%)" fill-opacity="1" d="M 3342.539062 2215.210938 C 3302.769531 2215.160156 3164.101562 2233.199219 3164.101562 2233.199219 L 3112.058594 2258.640625 C 3112.058594 2258.640625 3114.371094 2259.800781 3122.46875 2262.109375 C 3130.558594 2264.429688 3157.160156 2248.238281 3157.160156 2248.238281 C 3157.160156 2248.238281 3263.550781 2262.109375 3280.898438 2265.578125 C 3298.25 2269.050781 3326.011719 2291.019531 3326.011719 2291.019531 C 3338.648438 2288.488281 3367.121094 2260.210938 3381.699219 2238.320312 C 3373.929688 2229.628906 3362.308594 2218.570312 3351.441406 2215.859375 C 3349.710938 2215.421875 3346.660156 2215.21875 3342.539062 2215.210938 Z M 3342.539062 2215.210938 "/>
<path fill-rule="nonzero" fill="rgb(100%, 65.039062%, 51.756287%)" fill-opacity="1" d="M 3215.308594 2323.730469 C 3203.140625 2323.691406 3247.320312 2385.140625 3278.800781 2407.179688 C 3295.121094 2393.941406 3328.171875 2366.320312 3335.160156 2354.148438 C 3304.328125 2349.269531 3243.648438 2338.441406 3220.761719 2325.71875 C 3218.320312 2324.359375 3216.53125 2323.738281 3215.308594 2323.730469 Z M 3215.308594 2323.730469 "/>
<path fill-rule="nonzero" fill="rgb(99.609375%, 50.584412%, 38.818359%)" fill-opacity="1" d="M 3157.160156 2248.230469 L 3196.480469 2278.300781 L 3193.011719 2247.078125 Z M 3157.160156 2248.230469 "/>
<path fill-rule="nonzero" fill="rgb(100%, 65.039062%, 51.756287%)" fill-opacity="1" d="M 3138.648438 2043.53125 C 3138.648438 2043.53125 3032.261719 2142.988281 3019.539062 2212.378906 C 3019.539062 2212.378906 3027.628906 2058.570312 3138.648438 2043.53125 Z M 3138.648438 2043.53125 "/>
<path fill-rule="nonzero" fill="rgb(39.988708%, 39.988708%, 39.988708%)" fill-opacity="1" d="M 2100.449219 1085.210938 L 2141.339844 890.578125 L 2319.609375 903.660156 L 2257.460938 1122.820312 Z M 2100.449219 1085.210938 "/>
<path fill-rule="nonzero" fill="rgb(30.200195%, 30.200195%, 30.200195%)" fill-opacity="1" d="M 2157.699219 941.28125 L 2093.910156 874.21875 C 2093.910156 874.21875 2180.589844 561.839844 2301.621094 507.871094 L 2555.128906 514.410156 L 2546.949219 609.269531 C 2546.949219 609.269531 2460.269531 594.550781 2363.769531 918.378906 L 2260.730469 951.089844 Z M 2157.699219 941.28125 "/>
<path fill-rule="nonzero" fill="rgb(100%, 65.039062%, 51.756287%)" fill-opacity="1" d="M 2853 1642.230469 C 2853 1642.230469 2836.808594 1713.941406 2853 1781.011719 C 2869.191406 1848.089844 2894.628906 1959.109375 2894.628906 1959.109375 C 2894.628906 1959.109375 2695.71875 1864.28125 2709.589844 1776.390625 C 2723.46875 1688.488281 2853 1642.230469 2853 1642.230469 Z M 2853 1642.230469 "/>
<path fill-rule="nonzero" fill="rgb(100%, 65.039062%, 51.756287%)" fill-opacity="1" d="M 3254.308594 1936.5 C 3227.730469 2001.78125 3299.410156 2043.53125 3299.410156 2043.53125 L 3329.46875 2020.410156 C 3329.46875 2020.410156 3390.878906 2010.910156 3402.328125 2030.539062 C 3413.78125 2050.171875 3384.980469 2086.328125 3384.980469 2086.328125 C 3488.75 2063.851562 3523.960938 2018.101562 3535.128906 1984.839844 C 3489.230469 2007.371094 3446.398438 1977.390625 3408.058594 1959.390625 C 3367.980469 1940.589844 3318.101562 1958.578125 3292.75 1959.390625 C 3267.398438 1960.210938 3254.308594 1936.5 3254.308594 1936.5 Z M 3254.308594 1936.5 "/>
<path fill-rule="nonzero" fill="rgb(19.993591%, 19.993591%, 19.993591%)" fill-opacity="1" d="M 1272.308594 2521.359375 C 1272.308594 2521.359375 1471.21875 2618.503906 1526.730469 2692.519531 C 1582.238281 2766.535156 1734.898438 2891.4375 1734.898438 2891.4375 C 1734.898438 2891.4375 1383.328125 2697.144531 1272.308594 2521.359375 Z M 1272.308594 2521.359375 "/>
<path fill-rule="nonzero" fill="rgb(19.993591%, 19.993591%, 19.993591%)" fill-opacity="1" d="M 2111.898438 3096.902344 C 2111.898438 3096.902344 2409.570312 3211.390625 2543.679688 3139.425781 C 2543.679688 3139.425781 2497.878906 3329.148438 2111.898438 3096.902344 Z M 2111.898438 3096.902344 "/>
<path fill-rule="nonzero" fill="rgb(11.767578%, 11.767578%, 11.767578%)" fill-opacity="1" d="M 2587.011719 1533.519531 C 2587.011719 1643.328125 2544.121094 1748.640625 2467.769531 1826.28125 C 2391.429688 1903.929688 2287.890625 1947.550781 2179.921875 1947.550781 C 2071.960938 1947.550781 1968.410156 1903.929688 1892.070312 1826.28125 C 1815.730469 1748.640625 1772.839844 1643.328125 1772.839844 1533.519531 C 1772.839844 1423.71875 1815.730469 1318.410156 1892.070312 1240.769531 C 1968.410156 1163.121094 2071.960938 1119.5 2179.921875 1119.5 C 2287.890625 1119.5 2391.429688 1163.121094 2467.769531 1240.769531 C 2544.121094 1318.410156 2587.011719 1423.71875 2587.011719 1533.519531 Z M 2587.011719 1533.519531 "/>
<path fill-rule="nonzero" fill="rgb(30.200195%, 30.200195%, 30.200195%)" fill-opacity="1" d="M 2420.46875 1468.761719 C 2420.46875 1628.441406 2291.03125 1757.878906 2131.351562 1757.878906 C 1971.671875 1757.878906 1842.230469 1628.441406 1842.230469 1468.761719 C 1842.230469 1309.078125 1971.671875 1179.640625 2131.351562 1179.640625 C 2291.03125 1179.640625 2420.46875 1309.078125 2420.46875 1468.761719 Z M 2420.46875 1468.761719 "/>
<path fill-rule="nonzero" fill="rgb(11.767578%, 11.767578%, 11.767578%)" fill-opacity="1" d="M 2351.078125 1468.761719 C 2351.078125 1597.78125 2246.488281 1702.371094 2117.46875 1702.371094 C 1988.449219 1702.371094 1883.859375 1597.78125 1883.859375 1468.761719 C 1883.859375 1339.738281 1988.449219 1235.148438 2117.46875 1235.148438 C 2246.488281 1235.148438 2351.078125 1339.738281 2351.078125 1468.761719 Z M 2351.078125 1468.761719 "/>
<path fill-rule="nonzero" fill="rgb(30.200195%, 30.200195%, 30.200195%)" fill-opacity="1" d="M 2026.851562 1232.410156 L 2069.378906 1045.949219 L 2288.539062 1059.039062 L 2298.351562 1271.660156 C 2298.351562 1271.660156 2151.148438 1157.171875 2026.851562 1232.410156 Z M 2026.851562 1232.410156 "/>
<path fill-rule="nonzero" fill="rgb(11.767578%, 11.767578%, 11.767578%)" fill-opacity="1" d="M 3329.46875 2020.410156 C 3329.46875 2020.410156 3360.699219 1978.769531 3406.960938 1983.398438 C 3453.21875 1988.019531 3430.089844 2043.53125 3430.089844 2043.53125 L 3373.421875 2018.089844 C 3373.421875 2018.089844 3358.390625 2008.839844 3329.46875 2020.410156 Z M 3329.46875 2020.410156 "/>
</svg>
